<svg width="1893" height="858" viewBox="0 0 1893 858" fill="none" xmlns="http://www.w3.org/2000/svg">
<path d="M656 429.5C656 559.563 550.563 665 420.5 665C290.437 665 185 559.563 185 429.5C185 299.437 290.437 194 420.5 194C550.563 194 656 299.437 656 429.5Z" fill="#EBBC42" stroke="#E7AD18" stroke-width="2"/>
<path d="M301 261C305.205 297.28 304.559 307.47 343.88 314.739C305.017 320.965 306.749 330.057 301 369C294.288 329.849 294.769 321.264 258.257 314.739C294.842 307.976 296.07 297.802 301 261Z" fill="white"/>
<path d="M385.372 569.689C386.743 579.632 386.75 579.714 397.543 581.772C386.75 583.829 387.171 581.277 385.372 593.6C382.979 581.339 383.829 583.918 372 581.772C383.854 579.362 383.611 579.811 385.372 569.689Z" fill="white"/>
<path d="M478.935 230.337C481.595 249.623 481.61 249.782 502.543 253.772C481.61 257.762 482.426 252.812 478.935 276.715C474.295 252.933 475.943 257.935 453 253.772C475.991 249.099 475.52 249.97 478.935 230.337Z" fill="white"/>
<circle cx="343.5" cy="534.5" r="4.5" fill="white"/>
<circle cx="542.5" cy="451.5" r="4.5" fill="white"/>
<circle cx="524" cy="453" r="3" fill="white"/>
<circle cx="551.5" cy="467.5" r="4.5" fill="white"/>
<circle cx="282.5" cy="482.5" r="4.5" fill="white"/>
<circle cx="561.5" cy="449.5" r="2.5" fill="white"/>
<circle cx="310.5" cy="473.5" r="2.5" fill="white"/>
<circle cx="556.5" cy="434.5" r="2.5" fill="white"/>
<circle cx="307.5" cy="453.5" r="2.5" fill="white"/>
<circle cx="296.5" cy="473.5" r="2.5" fill="white"/>
<circle cx="572.5" cy="427.5" r="2.5" fill="white"/>
<circle cx="524" cy="498" r="3" fill="white"/>
<circle cx="528.5" cy="476.5" r="4.5" fill="white"/>
<circle cx="461.5" cy="272.5" r="2.5" fill="white"/>
<circle cx="437.5" cy="288.5" r="4.5" fill="white"/>
<circle cx="452" cy="307" r="3" fill="white"/>
<circle cx="338.5" cy="605.5" r="4.5" fill="white"/>
<circle cx="363" cy="595" r="3" fill="white"/>
<circle cx="302" cy="487" r="3" fill="white"/>
<circle cx="347.5" cy="578.5" r="9.5" fill="white"/>
<circle cx="558.5" cy="488.5" r="9.5" fill="white"/>
<g clip-path="url(#clip0_201_52)">
<path d="M491.161 518.288C492.24 507.722 491.383 497.071 488.726 486.899C465.836 505.805 440.015 520.438 416.766 531.317C426.208 547.642 430.494 566.612 428.745 585.845C428.495 588.596 429.503 591.248 431.382 593.127C432.117 593.862 432.986 594.479 433.964 594.938C437.445 596.568 441.573 595.843 444.29 593.126L465.804 571.612C480.105 557.311 489.111 538.374 491.161 518.288Z" fill="#654616"/>
<path d="M342.711 369.839C322.626 371.889 303.689 380.895 289.388 395.196L267.875 416.71C265.157 419.427 264.433 423.555 266.062 427.036C266.521 428.014 267.138 428.882 267.873 429.617C269.752 431.497 272.404 432.504 275.155 432.254C294.389 430.506 313.358 434.792 329.683 444.233C340.562 420.985 355.195 395.165 374.101 372.274C363.929 369.617 353.278 368.76 342.711 369.839V369.839Z" fill="#654616"/>
<path d="M505.342 355.658C515.871 366.188 529.827 371.238 543.653 370.837C544.135 369.119 544.582 367.444 544.993 365.82C551.804 338.896 550.989 319.549 550.951 318.738C550.73 314.033 546.967 310.27 542.262 310.049C541.452 310.011 522.104 309.196 495.18 316.007C493.557 316.417 491.881 316.865 490.164 317.346C489.762 331.173 494.812 345.129 505.342 355.658Z" fill="#654616"/>
<path d="M537.644 388.973C521.17 387.928 504.995 381.129 492.433 368.567C479.871 356.005 473.072 339.83 472.028 323.356C450.439 331.637 425.151 345.49 401.992 368.649C368.901 401.74 347.178 446.794 334.782 478.762C333.475 482.133 334.281 485.959 336.838 488.516L372.484 524.162C375.041 526.719 378.867 527.525 382.238 526.218C414.206 513.822 459.26 492.099 492.351 459.008C515.51 435.85 529.363 410.561 537.644 388.973V388.973ZM436.708 424.292C426.031 413.616 426.031 396.244 436.708 385.567C447.385 374.89 464.756 374.89 475.433 385.567C486.11 396.244 486.11 413.615 475.433 424.292C464.756 434.969 447.384 434.969 436.708 424.292Z" fill="#654616"/>
<path d="M327.731 505.979C320.023 507.799 313.927 513.37 311.422 520.884L301.207 551.528C299.387 556.427 304.597 561.606 309.471 559.792L340.116 549.577C347.629 547.073 353.201 540.977 355.02 533.269C355.069 533.06 355.104 532.851 355.147 532.642L328.357 505.852C328.149 505.896 327.939 505.93 327.731 505.979V505.979Z" fill="#654616"/>
<path d="M463.035 384.724C461.778 384.153 460.295 384.709 459.724 385.965C459.153 387.222 459.709 388.705 460.965 389.276L463.035 384.724ZM469.048 416.647C468.282 417.796 468.592 419.348 469.741 420.114C470.89 420.88 472.442 420.57 473.208 419.421L469.048 416.647ZM460.965 389.276C462.378 389.918 464.778 391.387 466.942 393.606C469.097 395.816 470.887 398.632 471.394 401.979L476.338 401.23C475.628 396.544 473.158 392.819 470.521 390.115C467.893 387.42 464.969 385.604 463.035 384.724L460.965 389.276ZM471.394 401.979C472.519 409.402 470.524 414.432 469.048 416.647L473.208 419.421C475.382 416.159 477.647 409.871 476.338 401.23L471.394 401.979Z" fill="#654616"/>
</g>
<path d="M849.7 371.406C898.238 371.406 936.557 343.021 944.789 298.741H907.037C899.373 320.881 877.233 335.641 850.552 335.641C813.368 335.641 788.106 308.96 788.106 264.112C788.106 220.967 811.665 192.299 850.552 192.299C875.246 192.299 895.967 205.64 903.063 230.05H941.667C934.57 185.77 898.522 156.818 851.403 156.818C790.944 156.818 750.07 199.963 750.07 264.396C750.07 331.384 790.944 371.406 849.7 371.406ZM1062.24 227.212C1040.95 222.387 1016.83 227.212 1008.31 244.243L1006.32 228.064H974.533V368H1009.16V299.877C1009.16 272.627 1023.64 257.3 1048.62 257.3H1062.24V227.212ZM1080.7 432.717C1100.28 437.542 1141.72 444.639 1159.04 400.075L1224.61 227.78H1187.99L1150.52 331.1L1111.92 227.78H1074.45L1134.34 375.948L1131.22 384.463C1124.41 403.197 1117.88 404.332 1101.98 404.332H1081.26L1080.7 432.717ZM1248.12 433.001H1281.9V348.698C1290.7 363.175 1309.72 371.69 1330.72 371.69C1372.16 371.69 1396.86 339.899 1396.29 296.187C1395.44 252.19 1370.18 223.522 1330.44 223.522C1309.15 223.522 1289.85 232.889 1281.33 249.068L1279.35 227.78H1248.12V433.001ZM1283.32 297.89C1283.32 272.627 1298.65 255.029 1322.78 255.029C1346.9 255.029 1361.38 272.911 1361.38 297.89C1361.38 322.868 1346.9 340.467 1322.78 340.467C1298.65 340.467 1283.32 323.152 1283.32 297.89ZM1470.94 368V256.448H1497.62V227.78H1470.94V184.067H1436.59V227.78H1409.63V256.448H1436.59V368H1470.94ZM1510.66 297.606C1510.66 340.751 1539.61 371.406 1583.61 371.406C1627.6 371.406 1656.55 340.751 1656.55 297.606C1656.55 254.461 1627.6 223.806 1583.61 223.806C1539.61 223.806 1510.66 254.461 1510.66 297.606ZM1545.57 297.606C1545.57 272.344 1560.61 254.745 1583.61 254.745C1606.6 254.745 1621.64 272.344 1621.64 297.606C1621.64 322.585 1606.6 340.467 1583.61 340.467C1560.61 340.467 1545.57 322.585 1545.57 297.606Z" fill="#654616"/>
<path d="M762.686 475.452C762.686 501.849 778.013 523.422 815.481 533.64L849.259 542.723C864.587 546.981 873.386 554.929 873.386 568.27C873.386 585.017 858.91 596.087 834.499 596.087C810.94 596.087 795.896 585.584 795.896 567.986H760.131C761.55 605.17 791.07 628.729 833.931 628.729C879.063 628.729 909.435 604.034 909.435 567.134C909.435 539.317 892.404 517.745 856.923 508.378L823.145 499.579C808.101 495.605 798.734 488.225 798.734 474.032C798.734 457.285 811.507 445.932 833.08 445.932C852.381 445.932 866.006 455.299 866.858 474.6H902.622C900.919 438.552 874.805 413.857 833.931 413.857C791.07 413.857 762.686 439.403 762.686 475.452ZM945.425 690.04H979.203V605.737C988.002 620.214 1007.02 628.729 1028.02 628.729C1069.47 628.729 1094.16 596.938 1093.59 553.226C1092.74 509.229 1067.48 480.561 1027.74 480.561C1006.45 480.561 987.151 489.928 978.636 506.107L976.649 484.819H945.425V690.04ZM980.622 554.929C980.622 529.666 995.95 512.068 1020.08 512.068C1044.2 512.068 1058.68 529.95 1058.68 554.929C1058.68 579.907 1044.2 597.506 1020.08 597.506C995.95 597.506 980.622 580.191 980.622 554.929ZM1168.24 628.729C1190.38 628.729 1207.13 618.794 1213.09 604.318L1215.64 625.039H1246.01V539.885C1246.01 502.701 1224.44 480.561 1184.99 480.561C1148.65 480.561 1123.67 500.714 1123.96 530.802H1153.48C1153.19 516.326 1164.26 507.526 1183.28 507.526C1200.31 507.526 1212.23 514.906 1212.23 534.208V537.33L1172.21 540.453C1140.71 543.007 1120.27 557.767 1120.27 585.017C1120.27 611.13 1138.15 628.729 1168.24 628.729ZM1179.59 602.615C1163.98 602.615 1155.47 595.803 1155.47 583.597C1155.47 572.243 1162.85 565.431 1183.28 563.444L1212.52 560.89V568.27C1212.52 594.384 1194.35 602.615 1179.59 602.615ZM1277.25 554.645C1277.25 598.641 1305.06 628.729 1344.52 628.729C1380.85 628.729 1407.53 606.589 1411.79 573.663H1378.86C1374.89 589.558 1362.12 597.79 1346.79 597.79C1325.22 597.79 1311.88 581.61 1311.88 554.645C1311.88 527.396 1325.5 511.216 1347.07 511.216C1362.12 511.216 1374.89 519.164 1378.86 535.627H1411.51C1407.82 502.701 1382.55 480.561 1347.36 480.561C1306.2 480.561 1277.25 510.649 1277.25 554.645ZM1435.38 554.929C1435.38 599.493 1462.63 628.729 1503.22 628.729C1537 628.729 1563.4 608.576 1569.36 578.772H1537.28C1533.88 590.977 1520.53 599.493 1503.79 599.493C1482.78 599.493 1469.73 587.287 1468.87 564.863H1568.79V554.361C1568.79 509.797 1544.09 480.561 1503.22 480.561C1462.91 480.561 1435.38 509.797 1435.38 554.929ZM1469.44 542.723C1469.73 521.435 1483.07 509.229 1502.08 509.229C1520.82 509.229 1534.16 520.867 1534.44 542.723H1469.44Z" fill="#654616"/>
<defs>
<clipPath id="clip0_201_52">
<rect width="286" height="286" fill="white" transform="translate(265 310)"/>
</clipPath>
</defs>
</svg>
