<svg width="1893" height="859" viewBox="0 0 1893 859" fill="none" xmlns="http://www.w3.org/2000/svg">
<path d="M656 430.151C656 560.214 550.563 665.651 420.5 665.651C290.437 665.651 185 560.214 185 430.151C185 300.088 290.437 194.651 420.5 194.651C550.563 194.651 656 300.088 656 430.151Z" fill="#EBBC42" stroke="#E7AD18" stroke-width="2"/>
<path d="M301 261.651C305.205 297.932 304.559 308.121 343.88 315.391C305.017 321.617 306.749 330.709 301 369.651C294.288 330.5 294.769 321.916 258.257 315.391C294.842 308.628 296.07 298.454 301 261.651Z" fill="white"/>
<path d="M385.372 570.341C386.743 580.284 386.75 580.366 397.543 582.423C386.75 584.48 387.171 581.928 385.372 594.252C382.979 581.991 383.829 584.57 372 582.423C383.854 580.014 383.611 580.463 385.372 570.341Z" fill="white"/>
<path d="M478.935 230.989C481.595 250.274 481.61 250.433 502.543 254.423C481.61 258.413 482.426 253.464 478.935 277.366C474.295 253.585 475.943 258.587 453 254.423C475.991 249.75 475.52 250.621 478.935 230.989Z" fill="white"/>
<circle cx="343.5" cy="535.151" r="4.5" fill="white"/>
<circle cx="542.5" cy="452.151" r="4.5" fill="white"/>
<circle cx="524" cy="453.651" r="3" fill="white"/>
<circle cx="551.5" cy="468.151" r="4.5" fill="white"/>
<circle cx="282.5" cy="483.151" r="4.5" fill="white"/>
<circle cx="561.5" cy="450.151" r="2.5" fill="white"/>
<circle cx="310.5" cy="474.151" r="2.5" fill="white"/>
<circle cx="556.5" cy="435.151" r="2.5" fill="white"/>
<circle cx="307.5" cy="454.151" r="2.5" fill="white"/>
<circle cx="296.5" cy="474.151" r="2.5" fill="white"/>
<circle cx="572.5" cy="428.151" r="2.5" fill="white"/>
<circle cx="524" cy="498.651" r="3" fill="white"/>
<circle cx="528.5" cy="477.151" r="4.5" fill="white"/>
<circle cx="461.5" cy="273.151" r="2.5" fill="white"/>
<circle cx="437.5" cy="289.151" r="4.5" fill="white"/>
<circle cx="452" cy="307.651" r="3" fill="white"/>
<circle cx="338.5" cy="606.151" r="4.5" fill="white"/>
<circle cx="363" cy="595.651" r="3" fill="white"/>
<circle cx="302" cy="487.651" r="3" fill="white"/>
<circle cx="347.5" cy="579.151" r="9.5" fill="white"/>
<circle cx="558.5" cy="489.151" r="9.5" fill="white"/>
<g clip-path="url(#clip0_22_2)">
<path d="M491.162 518.94C492.24 508.373 491.383 497.722 488.726 487.55C465.836 506.456 440.015 521.09 416.766 531.968C426.208 548.294 430.494 567.263 428.745 586.496C428.495 589.248 429.503 591.9 431.382 593.779C432.117 594.514 432.986 595.13 433.964 595.589C437.445 597.219 441.573 596.495 444.29 593.777L465.804 572.263C480.105 557.962 489.111 539.025 491.162 518.94Z" fill="#654616"/>
<path d="M342.711 370.49C322.626 372.541 303.689 381.547 289.388 395.847L267.875 417.361C265.157 420.079 264.433 424.207 266.062 427.687C266.521 428.665 267.138 429.534 267.873 430.269C269.752 432.148 272.404 433.156 275.155 432.905C294.389 431.157 313.358 435.444 329.683 444.885C340.562 421.636 355.195 395.816 374.101 372.926C363.929 370.268 353.278 369.411 342.711 370.49V370.49Z" fill="#654616"/>
<path d="M505.342 356.31C515.871 366.839 529.827 371.889 543.653 371.488C544.135 369.77 544.582 368.095 544.993 366.471C551.804 339.547 550.989 320.2 550.951 319.39C550.73 314.684 546.967 310.921 542.262 310.7C541.452 310.662 522.104 309.847 495.18 316.658C493.557 317.069 491.881 317.516 490.164 317.997C489.763 331.824 494.813 345.781 505.342 356.31Z" fill="#654616"/>
<path d="M537.644 389.624C521.17 388.579 504.995 381.78 492.433 369.218C479.871 356.656 473.072 340.482 472.028 324.008C450.439 332.288 425.151 346.142 401.992 369.3C368.901 402.392 347.178 447.445 334.782 479.413C333.475 482.784 334.281 486.61 336.838 489.167L372.484 524.813C375.041 527.37 378.867 528.176 382.238 526.869C414.206 514.473 459.26 492.751 492.351 459.659C515.51 436.501 529.363 411.213 537.644 389.624V389.624ZM436.708 424.944C426.031 414.267 426.031 396.895 436.708 386.218C447.385 375.541 464.756 375.542 475.433 386.218C486.11 396.895 486.11 414.267 475.433 424.944C464.756 435.621 447.384 435.621 436.708 424.944Z" fill="#654616"/>
<path d="M327.731 506.631C320.023 508.45 313.927 514.022 311.422 521.535L301.207 552.18C299.387 557.078 304.597 562.258 309.471 560.444L340.116 550.229C347.629 547.724 353.201 541.628 355.02 533.92C355.069 533.711 355.104 533.502 355.147 533.293L328.357 506.504C328.149 506.547 327.939 506.582 327.731 506.631V506.631Z" fill="#654616"/>
<path d="M463.035 385.375C461.778 384.804 460.295 385.36 459.724 386.617C459.153 387.874 459.709 389.356 460.965 389.927L463.035 385.375ZM469.048 417.299C468.282 418.447 468.592 420 469.741 420.766C470.89 421.531 472.442 421.221 473.208 420.072L469.048 417.299ZM460.965 389.927C462.378 390.569 464.778 392.039 466.942 394.257C469.097 396.467 470.887 399.283 471.394 402.63L476.338 401.881C475.628 397.196 473.158 393.47 470.521 390.766C467.893 388.071 464.969 386.255 463.035 385.375L460.965 389.927ZM471.394 402.63C472.519 410.054 470.524 415.084 469.048 417.299L473.208 420.072C475.382 416.81 477.647 410.522 476.338 401.881L471.394 402.63Z" fill="#654616"/>
</g>
<path d="M849.7 372.058C898.238 372.058 936.557 343.673 944.789 299.393H907.037C899.373 321.533 877.233 336.293 850.552 336.293C813.368 336.293 788.106 309.611 788.106 264.763C788.106 221.619 811.665 192.95 850.552 192.95C875.246 192.95 895.967 206.291 903.063 230.702H941.667C934.57 186.422 898.522 157.469 851.403 157.469C790.944 157.469 750.07 200.614 750.07 265.047C750.07 332.035 790.944 372.058 849.7 372.058ZM1062.24 227.863C1040.95 223.038 1016.83 227.863 1008.31 244.894L1006.32 228.715H974.533V368.651H1009.16V300.528C1009.16 273.279 1023.64 257.951 1048.62 257.951H1062.24V227.863ZM1080.7 433.368C1100.28 438.194 1141.72 445.29 1159.04 400.726L1224.61 228.431H1187.99L1150.52 331.751L1111.92 228.431H1074.45L1134.34 376.599L1131.22 385.114C1124.41 403.848 1117.88 404.984 1101.98 404.984H1081.26L1080.7 433.368ZM1248.12 433.652H1281.9V349.35C1290.7 363.826 1309.72 372.341 1330.72 372.341C1372.16 372.341 1396.86 340.551 1396.29 296.838C1395.44 252.842 1370.18 224.173 1330.44 224.173C1309.15 224.173 1289.85 233.54 1281.33 249.72L1279.35 228.431H1248.12V433.652ZM1283.32 298.541C1283.32 273.279 1298.65 255.68 1322.78 255.68C1346.9 255.68 1361.38 273.563 1361.38 298.541C1361.38 323.52 1346.9 341.118 1322.78 341.118C1298.65 341.118 1283.32 323.804 1283.32 298.541ZM1470.94 368.651V257.1H1497.62V228.431H1470.94V184.719H1436.59V228.431H1409.63V257.1H1436.59V368.651H1470.94ZM1510.66 298.257C1510.66 341.402 1539.61 372.058 1583.61 372.058C1627.6 372.058 1656.55 341.402 1656.55 298.257C1656.55 255.113 1627.6 224.457 1583.61 224.457C1539.61 224.457 1510.66 255.113 1510.66 298.257ZM1545.57 298.257C1545.57 272.995 1560.61 255.396 1583.61 255.396C1606.6 255.396 1621.64 272.995 1621.64 298.257C1621.64 323.236 1606.6 341.118 1583.61 341.118C1560.61 341.118 1545.57 323.236 1545.57 298.257Z" fill="#FCFCFC"/>
<path d="M762.686 476.103C762.686 502.501 778.013 524.073 815.481 534.292L849.259 543.375C864.587 547.632 873.386 555.58 873.386 568.921C873.386 585.668 858.91 596.738 834.499 596.738C810.94 596.738 795.896 586.236 795.896 568.637H760.131C761.55 605.821 791.07 629.38 833.931 629.38C879.063 629.38 909.434 604.686 909.434 567.786C909.434 539.969 892.404 518.396 856.923 509.029L823.145 500.23C808.101 496.256 798.734 488.876 798.734 474.684C798.734 457.937 811.507 446.583 833.08 446.583C852.381 446.583 866.006 455.95 866.857 475.252H902.622C900.919 439.203 874.805 414.508 833.931 414.508C791.07 414.508 762.686 440.054 762.686 476.103ZM945.425 690.691H979.203V606.389C988.002 620.865 1007.02 629.38 1028.02 629.38C1069.47 629.38 1094.16 597.589 1093.59 553.877C1092.74 509.881 1067.48 481.212 1027.74 481.212C1006.45 481.212 987.151 490.579 978.635 506.759L976.648 485.47H945.425V690.691ZM980.622 555.58C980.622 530.318 995.95 512.719 1020.08 512.719C1044.2 512.719 1058.68 530.602 1058.68 555.58C1058.68 580.559 1044.2 598.157 1020.08 598.157C995.95 598.157 980.622 580.843 980.622 555.58ZM1168.24 629.38C1190.38 629.38 1207.13 619.446 1213.09 604.97L1215.64 625.69H1246.01V540.536C1246.01 503.352 1224.44 481.212 1184.99 481.212C1148.65 481.212 1123.67 501.365 1123.96 531.453H1153.48C1153.19 516.977 1164.26 508.178 1183.28 508.178C1200.31 508.178 1212.23 515.558 1212.23 534.859V537.982L1172.21 541.104C1140.71 543.659 1120.27 558.419 1120.27 585.668C1120.27 611.782 1138.15 629.38 1168.24 629.38ZM1179.59 603.266C1163.98 603.266 1155.47 596.454 1155.47 584.249C1155.47 572.895 1162.85 566.083 1183.28 564.096L1212.52 561.541V568.921C1212.52 595.035 1194.35 603.266 1179.59 603.266ZM1277.25 555.296C1277.25 599.293 1305.06 629.38 1344.52 629.38C1380.85 629.38 1407.53 607.24 1411.79 574.314H1378.86C1374.89 590.209 1362.12 598.441 1346.79 598.441C1325.22 598.441 1311.88 582.262 1311.88 555.296C1311.88 528.047 1325.5 511.868 1347.07 511.868C1362.12 511.868 1374.89 519.815 1378.86 536.279H1411.51C1407.82 503.352 1382.55 481.212 1347.36 481.212C1306.2 481.212 1277.25 511.3 1277.25 555.296ZM1435.38 555.58C1435.38 600.144 1462.63 629.38 1503.22 629.38C1537 629.38 1563.4 609.227 1569.36 579.423H1537.28C1533.88 591.629 1520.53 600.144 1503.79 600.144C1482.78 600.144 1469.73 587.939 1468.87 565.515H1568.79V555.012C1568.79 510.449 1544.09 481.212 1503.22 481.212C1462.91 481.212 1435.38 510.449 1435.38 555.58ZM1469.44 543.375C1469.73 522.086 1483.07 509.881 1502.08 509.881C1520.82 509.881 1534.16 521.519 1534.44 543.375H1469.44Z" fill="#FCFCFC"/>
<defs>
<clipPath id="clip0_22_2">
<rect width="286" height="286" fill="white" transform="translate(265 310.651)"/>
</clipPath>
</defs>
</svg>
