<svg width="2731" height="593" viewBox="0 0 2731 593" fill="none" xmlns="http://www.w3.org/2000/svg">
<path d="M796.016 341.57C847.48 341.57 887.342 311.227 895.671 265.416H856.107C848.967 289.511 826.359 304.98 796.909 304.98C757.047 304.98 731.464 275.232 731.464 229.123C731.464 182.717 756.749 153.564 796.909 153.564C825.764 153.564 847.48 168.438 854.917 193.724H895.076C887.639 147.02 849.265 116.974 797.801 116.974C734.141 116.974 691.602 161.893 691.602 229.421C691.602 297.543 732.653 341.57 796.016 341.57ZM1016.68 190.451C1010.73 188.964 1005.67 188.369 1000.62 188.369C980.984 188.369 967.003 198.186 960.756 212.762L958.673 191.344H924.464V338H960.756V266.605C960.756 238.048 977.117 224.066 1003.3 224.066H1016.68V190.451ZM1032.81 406.122C1040.84 408.205 1049.77 409.395 1059.88 409.395C1083.98 409.395 1099.45 398.09 1110.45 370.722L1182.44 191.046H1144.96L1105.1 298.138L1067.32 191.046H1028.95L1088.14 344.247L1083.98 355.254C1077.73 372.507 1068.81 375.78 1054.53 375.78H1032.81V406.122ZM1203.06 406.122H1239.35V318.367C1248.57 333.24 1267.61 341.867 1289.62 341.867C1333.35 341.867 1358.34 308.55 1358.34 262.738C1358.34 216.629 1330.97 186.584 1289.62 186.584C1267.31 186.584 1247.98 196.401 1239.05 213.357L1236.67 191.046H1203.06V406.122ZM1239.65 264.523C1239.65 238.048 1256.01 219.604 1281 219.604C1306.58 219.604 1321.75 238.345 1321.75 264.523C1321.75 290.701 1306.58 309.145 1281 309.145C1256.01 309.145 1239.65 290.999 1239.65 264.523ZM1435.76 338V221.389H1464.32V191.046H1435.76V145.235H1399.47V191.046H1371.21V221.389H1399.47V338H1435.76ZM1476.8 264.226C1476.8 310.037 1509.82 341.57 1555.34 341.57C1600.85 341.57 1633.87 310.037 1633.87 264.226C1633.87 218.414 1600.85 186.882 1555.34 186.882C1509.82 186.882 1476.8 218.414 1476.8 264.226ZM1513.09 264.226C1513.09 237.453 1530.35 219.307 1555.34 219.307C1580.32 219.307 1597.58 237.453 1597.58 264.226C1597.58 290.999 1580.32 309.145 1555.34 309.145C1530.35 309.145 1513.09 290.999 1513.09 264.226ZM1735.68 181.229C1735.68 214.547 1755.01 235.668 1791.9 243.7L1826.41 251.434C1844.26 255.301 1851.69 263.928 1851.69 278.505C1851.69 296.651 1835.63 307.657 1810.34 307.657C1785.95 307.657 1771.08 296.651 1770.78 278.207H1732.7C1733.59 317.177 1763.94 341.867 1810.34 341.867C1858.24 341.867 1889.77 315.689 1889.77 275.232C1889.77 242.807 1871.62 223.769 1834.44 215.737L1800.23 208.3C1782.08 204.135 1773.75 195.508 1773.75 180.04C1773.75 161.893 1788.93 150.589 1812.43 150.589C1833.84 150.589 1847.23 161.596 1848.12 180.337H1886.2C1885.01 141.07 1857.05 116.677 1813.02 116.677C1767.21 116.677 1735.68 143.152 1735.68 181.229ZM1918.86 406.122H1955.15V318.367C1964.38 333.24 1983.42 341.867 2005.43 341.867C2049.16 341.867 2074.15 308.55 2074.15 262.738C2074.15 216.629 2046.78 186.584 2005.43 186.584C1983.12 186.584 1963.78 196.401 1954.86 213.357L1952.48 191.046H1918.86V406.122ZM1955.45 264.523C1955.45 238.048 1971.81 219.604 1996.8 219.604C2022.38 219.604 2037.56 238.345 2037.56 264.523C2037.56 290.701 2022.38 309.145 1996.8 309.145C1971.81 309.145 1955.45 290.999 1955.45 264.523ZM2146.77 341.867C2169.68 341.867 2189.61 331.456 2195.86 316.284L2198.53 338H2230.36V248.757C2230.36 208.002 2205.97 186.584 2166.41 186.584C2126.54 186.584 2100.37 207.407 2100.37 239.238H2131.3C2131.3 223.769 2143.2 214.844 2164.62 214.844C2183.06 214.844 2194.96 222.876 2194.96 242.807V246.08L2150.94 249.352C2116.13 252.029 2096.5 268.985 2096.5 296.056C2096.5 323.721 2115.54 341.867 2146.77 341.867ZM2158.67 314.499C2142.31 314.499 2133.39 307.955 2133.39 294.568C2133.39 282.669 2142.01 275.232 2164.62 273.15L2195.26 270.77V278.505C2195.26 301.113 2180.98 314.499 2158.67 314.499ZM2257.39 264.226C2257.39 310.93 2286.54 341.867 2331.16 341.867C2369.54 341.867 2398.1 318.367 2402.56 284.157H2365.97C2362.1 300.22 2349.31 309.145 2331.16 309.145C2307.96 309.145 2293.68 291.891 2293.68 264.226C2293.68 236.56 2309.15 219.009 2332.35 219.009C2349.61 219.009 2361.8 227.636 2365.97 244.295H2402.26C2398.39 208.895 2371.03 186.584 2330.87 186.584C2287.43 186.584 2257.39 218.712 2257.39 264.226ZM2495.31 341.867C2533.69 341.867 2560.46 322.531 2566.71 290.404H2533.09C2528.93 304.385 2515.84 312.119 2495.91 312.119C2471.81 312.119 2458.13 299.03 2455.45 273.15L2566.11 272.852V261.846C2566.11 216.034 2538.15 186.584 2494.12 186.584C2450.99 186.584 2420.94 218.414 2420.94 264.523C2420.94 310.037 2451.58 341.867 2495.31 341.867ZM2494.42 216.332C2516.14 216.332 2530.12 229.718 2530.12 249.947H2456.34C2459.91 227.933 2473 216.332 2494.42 216.332Z" fill="white"/>
<path d="M583 296.5C583 426.563 477.563 532 347.5 532C217.437 532 112 426.563 112 296.5C112 166.437 217.437 61 347.5 61C477.563 61 583 166.437 583 296.5Z" fill="#EBBC42" stroke="#E7AD18" stroke-width="2"/>
<path d="M228 128C232.205 164.28 231.559 174.47 270.88 181.739C232.017 187.965 233.749 197.057 228 236C221.288 196.849 221.769 188.264 185.257 181.739C221.842 174.976 223.07 164.802 228 128Z" fill="white"/>
<path d="M312.372 436.689C313.743 446.632 313.75 446.714 324.543 448.772C313.75 450.829 314.171 448.277 312.372 460.6C309.979 448.339 310.829 450.918 299 448.772C310.854 446.362 310.611 446.811 312.372 436.689Z" fill="white"/>
<path d="M405.935 97.3372C408.595 116.623 408.61 116.782 429.543 120.772C408.61 124.762 409.426 119.812 405.935 143.715C401.295 119.933 402.943 124.935 380 120.772C402.991 116.099 402.52 116.97 405.935 97.3372Z" fill="white"/>
<circle cx="270.5" cy="401.5" r="4.5" fill="white"/>
<circle cx="469.5" cy="318.5" r="4.5" fill="white"/>
<circle cx="451" cy="320" r="3" fill="white"/>
<circle cx="478.5" cy="334.5" r="4.5" fill="white"/>
<circle cx="209.5" cy="349.5" r="4.5" fill="white"/>
<circle cx="488.5" cy="316.5" r="2.5" fill="white"/>
<circle cx="237.5" cy="340.5" r="2.5" fill="white"/>
<circle cx="483.5" cy="301.5" r="2.5" fill="white"/>
<circle cx="234.5" cy="320.5" r="2.5" fill="white"/>
<circle cx="223.5" cy="340.5" r="2.5" fill="white"/>
<circle cx="499.5" cy="294.5" r="2.5" fill="white"/>
<circle cx="451" cy="365" r="3" fill="white"/>
<circle cx="455.5" cy="343.5" r="4.5" fill="white"/>
<circle cx="388.5" cy="139.5" r="2.5" fill="white"/>
<circle cx="364.5" cy="155.5" r="4.5" fill="white"/>
<circle cx="379" cy="174" r="3" fill="white"/>
<circle cx="265.5" cy="472.5" r="4.5" fill="white"/>
<circle cx="290" cy="462" r="3" fill="white"/>
<circle cx="229" cy="354" r="3" fill="white"/>
<circle cx="274.5" cy="445.5" r="9.5" fill="white"/>
<circle cx="485.5" cy="355.5" r="9.5" fill="white"/>
<g clip-path="url(#clip0_20_48)">
<path d="M418.162 385.289C419.24 374.722 418.383 364.071 415.726 353.899C392.836 372.805 367.015 387.438 343.766 398.317C353.208 414.643 357.494 433.612 355.745 452.845C355.495 455.597 356.503 458.248 358.382 460.127C359.117 460.863 359.986 461.479 360.964 461.938C364.445 463.568 368.573 462.843 371.29 460.126L392.804 438.612C407.105 424.311 416.111 405.374 418.162 385.289Z" fill="#654616"/>
<path d="M269.711 236.839C249.626 238.889 230.689 247.895 216.388 262.196L194.875 283.71C192.157 286.427 191.433 290.556 193.062 294.036C193.521 295.014 194.138 295.882 194.873 296.617C196.752 298.497 199.404 299.504 202.155 299.254C221.389 297.506 240.358 301.792 256.683 311.233C267.562 287.985 282.195 262.165 301.101 239.274C290.929 236.617 280.278 235.76 269.711 236.839V236.839Z" fill="#654616"/>
<path d="M432.342 222.659C442.871 233.188 456.827 238.238 470.653 237.837C471.135 236.119 471.582 234.444 471.993 232.82C478.804 205.896 477.989 186.549 477.951 185.738C477.73 181.033 473.967 177.27 469.262 177.049C468.452 177.011 449.104 176.196 422.18 183.007C420.557 183.418 418.881 183.865 417.164 184.346C416.763 198.173 421.813 212.129 432.342 222.659Z" fill="#654616"/>
<path d="M464.644 255.973C448.17 254.928 431.995 248.129 419.433 235.567C406.871 223.005 400.072 206.831 399.028 190.356C377.439 198.637 352.151 212.49 328.992 235.649C295.901 268.74 274.178 313.794 261.782 345.762C260.475 349.133 261.281 352.959 263.838 355.516L299.484 391.162C302.041 393.719 305.867 394.525 309.238 393.218C341.206 380.822 386.26 359.099 419.351 326.008C442.51 302.85 456.363 277.561 464.644 255.973V255.973ZM363.708 291.292C353.031 280.616 353.031 263.244 363.708 252.567C374.385 241.89 391.756 241.89 402.433 252.567C413.11 263.244 413.11 280.615 402.433 291.292C391.756 301.969 374.384 301.969 363.708 291.292Z" fill="#654616"/>
<path d="M254.731 372.979C247.023 374.799 240.927 380.37 238.422 387.884L228.207 418.528C226.387 423.427 231.597 428.606 236.471 426.792L267.116 416.577C274.629 414.073 280.201 407.977 282.02 400.269C282.069 400.06 282.104 399.851 282.147 399.642L255.357 372.852C255.149 372.896 254.939 372.93 254.731 372.979V372.979Z" fill="#654616"/>
<path d="M390.035 251.724C388.778 251.153 387.295 251.709 386.724 252.965C386.153 254.222 386.709 255.705 387.965 256.276L390.035 251.724ZM396.048 283.647C395.282 284.796 395.592 286.348 396.741 287.114C397.89 287.88 399.442 287.57 400.208 286.421L396.048 283.647ZM387.965 256.276C389.378 256.918 391.778 258.387 393.942 260.606C396.097 262.816 397.887 265.632 398.394 268.979L403.338 268.23C402.628 263.544 400.158 259.819 397.521 257.115C394.893 254.42 391.969 252.604 390.035 251.724L387.965 256.276ZM398.394 268.979C399.519 276.402 397.524 281.432 396.048 283.647L400.208 286.421C402.382 283.159 404.647 276.871 403.338 268.23L398.394 268.979Z" fill="#654616"/>
</g>
<defs>
<clipPath id="clip0_20_48">
<rect width="286" height="286" fill="white" transform="translate(192 177)"/>
</clipPath>
</defs>
</svg>
