<svg width="1544" height="629" viewBox="0 0 1544 629" fill="none" xmlns="http://www.w3.org/2000/svg">
<rect width="1544" height="629" fill="#373737"/>
<path d="M656 310.5C656 440.563 550.563 546 420.5 546C290.437 546 185 440.563 185 310.5C185 180.437 290.437 75 420.5 75C550.563 75 656 180.437 656 310.5Z" fill="#EBBC42" stroke="#E7AD18" stroke-width="2"/>
<path d="M301 142C305.205 178.28 304.559 188.47 343.88 195.739C305.017 201.965 306.749 211.057 301 250C294.288 210.849 294.769 202.264 258.257 195.739C294.842 188.976 296.07 178.802 301 142Z" fill="white"/>
<path d="M385.372 450.689C386.743 460.632 386.75 460.714 397.543 462.772C386.75 464.829 387.171 462.277 385.372 474.6C382.979 462.339 383.829 464.918 372 462.772C383.854 460.362 383.611 460.811 385.372 450.689Z" fill="white"/>
<path d="M478.935 111.337C481.595 130.623 481.61 130.782 502.543 134.772C481.61 138.762 482.426 133.812 478.935 157.715C474.295 133.933 475.943 138.935 453 134.772C475.991 130.099 475.52 130.97 478.935 111.337Z" fill="white"/>
<circle cx="343.5" cy="415.5" r="4.5" fill="white"/>
<circle cx="542.5" cy="332.5" r="4.5" fill="white"/>
<circle cx="524" cy="334" r="3" fill="white"/>
<circle cx="551.5" cy="348.5" r="4.5" fill="white"/>
<circle cx="282.5" cy="363.5" r="4.5" fill="white"/>
<circle cx="561.5" cy="330.5" r="2.5" fill="white"/>
<circle cx="310.5" cy="354.5" r="2.5" fill="white"/>
<circle cx="556.5" cy="315.5" r="2.5" fill="white"/>
<circle cx="307.5" cy="334.5" r="2.5" fill="white"/>
<circle cx="296.5" cy="354.5" r="2.5" fill="white"/>
<circle cx="572.5" cy="308.5" r="2.5" fill="white"/>
<circle cx="524" cy="379" r="3" fill="white"/>
<circle cx="528.5" cy="357.5" r="4.5" fill="white"/>
<circle cx="461.5" cy="153.5" r="2.5" fill="white"/>
<circle cx="437.5" cy="169.5" r="4.5" fill="white"/>
<circle cx="452" cy="188" r="3" fill="white"/>
<circle cx="338.5" cy="486.5" r="4.5" fill="white"/>
<circle cx="363" cy="476" r="3" fill="white"/>
<circle cx="302" cy="368" r="3" fill="white"/>
<circle cx="347.5" cy="459.5" r="9.5" fill="white"/>
<circle cx="558.5" cy="369.5" r="9.5" fill="white"/>
<g clip-path="url(#clip0_17_0)">
<path d="M491.162 399.289C492.24 388.722 491.383 378.071 488.726 367.899C465.836 386.805 440.015 401.438 416.766 412.317C426.208 428.643 430.494 447.612 428.745 466.845C428.495 469.597 429.503 472.248 431.382 474.127C432.117 474.863 432.986 475.479 433.964 475.938C437.445 477.568 441.573 476.843 444.29 474.126L465.804 452.612C480.105 438.311 489.111 419.374 491.162 399.289Z" fill="#473110"/>
<path d="M342.711 250.839C322.626 252.889 303.689 261.895 289.388 276.196L267.875 297.71C265.157 300.427 264.433 304.556 266.062 308.036C266.521 309.014 267.138 309.882 267.873 310.617C269.752 312.497 272.404 313.504 275.155 313.254C294.389 311.506 313.358 315.792 329.683 325.233C340.562 301.985 355.195 276.165 374.101 253.274C363.929 250.617 353.278 249.76 342.711 250.839V250.839Z" fill="#473110"/>
<path d="M505.342 236.659C515.871 247.188 529.827 252.238 543.653 251.837C544.135 250.119 544.582 248.444 544.993 246.82C551.804 219.896 550.989 200.549 550.951 199.738C550.73 195.033 546.967 191.27 542.262 191.049C541.452 191.011 522.104 190.196 495.18 197.007C493.557 197.418 491.881 197.865 490.164 198.346C489.763 212.173 494.813 226.129 505.342 236.659Z" fill="#473110"/>
<path d="M537.644 269.973C521.17 268.928 504.995 262.129 492.433 249.567C479.871 237.005 473.072 220.831 472.028 204.356C450.439 212.637 425.151 226.49 401.992 249.649C368.901 282.74 347.178 327.794 334.782 359.762C333.475 363.133 334.281 366.959 336.838 369.516L372.484 405.162C375.041 407.719 378.867 408.525 382.238 407.218C414.206 394.822 459.26 373.099 492.351 340.008C515.51 316.85 529.363 291.561 537.644 269.973V269.973ZM436.708 305.292C426.031 294.616 426.031 277.244 436.708 266.567C447.385 255.89 464.756 255.89 475.433 266.567C486.11 277.244 486.11 294.615 475.433 305.292C464.756 315.969 447.384 315.969 436.708 305.292Z" fill="#473110"/>
<path d="M327.731 386.979C320.023 388.799 313.927 394.37 311.422 401.884L301.207 432.528C299.387 437.427 304.597 442.606 309.471 440.792L340.116 430.577C347.629 428.073 353.201 421.977 355.02 414.269C355.069 414.06 355.104 413.851 355.147 413.642L328.357 386.852C328.149 386.896 327.939 386.93 327.731 386.979V386.979Z" fill="#473110"/>
<path d="M463.035 265.724C461.778 265.153 460.295 265.709 459.724 266.965C459.153 268.222 459.709 269.705 460.965 270.276L463.035 265.724ZM469.048 297.647C468.282 298.796 468.592 300.348 469.741 301.114C470.89 301.88 472.442 301.57 473.208 300.421L469.048 297.647ZM460.965 270.276C462.378 270.918 464.778 272.387 466.942 274.606C469.097 276.816 470.887 279.632 471.394 282.979L476.338 282.23C475.628 277.544 473.158 273.819 470.521 271.115C467.893 268.42 464.969 266.604 463.035 265.724L460.965 270.276ZM471.394 282.979C472.519 290.402 470.524 295.432 469.048 297.647L473.208 300.421C475.382 297.159 477.647 290.871 476.338 282.23L471.394 282.979Z" fill="#473110"/>
</g>
<path d="M761.2 308.16C791.98 308.16 816.28 290.16 821.5 262.08H797.56C792.7 276.12 778.66 285.48 761.74 285.48C738.16 285.48 722.14 268.56 722.14 240.12C722.14 212.76 737.08 194.58 761.74 194.58C777.4 194.58 790.54 203.04 795.04 218.52H819.52C815.02 190.44 792.16 172.08 762.28 172.08C723.94 172.08 698.02 199.44 698.02 240.3C698.02 282.78 723.94 308.16 761.2 308.16ZM895.982 216.72C882.482 213.66 867.182 216.72 861.782 227.52L860.522 217.26H840.362V306H862.322V262.8C862.322 245.52 871.502 235.8 887.342 235.8H895.982V216.72ZM907.685 347.04C920.105 350.1 946.385 354.6 957.365 326.34L998.945 217.08H975.725L951.965 282.6L927.485 217.08H903.725L941.705 311.04L939.725 316.44C935.405 328.32 931.265 329.04 921.185 329.04H908.045L907.685 347.04ZM1013.86 347.22H1035.28V293.76C1040.86 302.94 1052.92 308.34 1066.24 308.34C1092.52 308.34 1108.18 288.18 1107.82 260.46C1107.28 232.56 1091.26 214.38 1066.06 214.38C1052.56 214.38 1040.32 220.32 1034.92 230.58L1033.66 217.08H1013.86V347.22ZM1036.18 261.54C1036.18 245.52 1045.9 234.36 1061.2 234.36C1076.5 234.36 1085.68 245.7 1085.68 261.54C1085.68 277.38 1076.5 288.54 1061.2 288.54C1045.9 288.54 1036.18 277.56 1036.18 261.54ZM1155.15 306V235.26H1172.07V217.08H1155.15V189.36H1133.37V217.08H1116.27V235.26H1133.37V306H1155.15ZM1180.34 261.36C1180.34 288.72 1198.7 308.16 1226.6 308.16C1254.5 308.16 1272.86 288.72 1272.86 261.36C1272.86 234 1254.5 214.56 1226.6 214.56C1198.7 214.56 1180.34 234 1180.34 261.36ZM1202.48 261.36C1202.48 245.34 1212.02 234.18 1226.6 234.18C1241.18 234.18 1250.72 245.34 1250.72 261.36C1250.72 277.2 1241.18 288.54 1226.6 288.54C1212.02 288.54 1202.48 277.2 1202.48 261.36Z" fill="#FCFCFC"/>
<path d="M706.02 374.14C706.02 390.88 715.74 404.56 739.5 411.04L760.92 416.8C770.64 419.5 776.22 424.54 776.22 433C776.22 443.62 767.04 450.64 751.56 450.64C736.62 450.64 727.08 443.98 727.08 432.82H704.4C705.3 456.4 724.02 471.34 751.2 471.34C779.82 471.34 799.08 455.68 799.08 432.28C799.08 414.64 788.28 400.96 765.78 395.02L744.36 389.44C734.82 386.92 728.88 382.24 728.88 373.24C728.88 362.62 736.98 355.42 750.66 355.42C762.9 355.42 771.54 361.36 772.08 373.6H794.76C793.68 350.74 777.12 335.08 751.2 335.08C724.02 335.08 706.02 351.28 706.02 374.14ZM821.903 510.22H843.323V456.76C848.903 465.94 860.963 471.34 874.283 471.34C900.563 471.34 916.223 451.18 915.863 423.46C915.323 395.56 899.303 377.38 874.103 377.38C860.603 377.38 848.363 383.32 842.963 393.58L841.703 380.08H821.903V510.22ZM844.223 424.54C844.223 408.52 853.943 397.36 869.243 397.36C884.543 397.36 893.723 408.7 893.723 424.54C893.723 440.38 884.543 451.54 869.243 451.54C853.943 451.54 844.223 440.56 844.223 424.54ZM963.199 471.34C977.239 471.34 987.859 465.04 991.639 455.86L993.259 469H1012.52V415C1012.52 391.42 998.839 377.38 973.819 377.38C950.779 377.38 934.939 390.16 935.119 409.24H953.839C953.659 400.06 960.679 394.48 972.739 394.48C983.539 394.48 991.099 399.16 991.099 411.4V413.38L965.719 415.36C945.739 416.98 932.779 426.34 932.779 443.62C932.779 460.18 944.119 471.34 963.199 471.34ZM970.399 454.78C960.499 454.78 955.099 450.46 955.099 442.72C955.099 435.52 959.779 431.2 972.739 429.94L991.279 428.32V433C991.279 449.56 979.759 454.78 970.399 454.78ZM1032.33 424.36C1032.33 452.26 1049.97 471.34 1074.99 471.34C1098.03 471.34 1114.95 457.3 1117.65 436.42H1096.77C1094.25 446.5 1086.15 451.72 1076.43 451.72C1062.75 451.72 1054.29 441.46 1054.29 424.36C1054.29 407.08 1062.93 396.82 1076.61 396.82C1086.15 396.82 1094.25 401.86 1096.77 412.3H1117.47C1115.13 391.42 1099.11 377.38 1076.79 377.38C1050.69 377.38 1032.33 396.46 1032.33 424.36ZM1132.61 424.54C1132.61 452.8 1149.89 471.34 1175.63 471.34C1197.05 471.34 1213.79 458.56 1217.57 439.66H1197.23C1195.07 447.4 1186.61 452.8 1175.99 452.8C1162.67 452.8 1154.39 445.06 1153.85 430.84H1217.21V424.18C1217.21 395.92 1201.55 377.38 1175.63 377.38C1150.07 377.38 1132.61 395.92 1132.61 424.54ZM1154.21 416.8C1154.39 403.3 1162.85 395.56 1174.91 395.56C1186.79 395.56 1195.25 402.94 1195.43 416.8H1154.21Z" fill="#FCFCFC"/>
<defs>
<clipPath id="clip0_17_0">
<rect width="286" height="286" fill="white" transform="translate(265 191)"/>
</clipPath>
</defs>
</svg>
