<svg width="473" height="473" viewBox="0 0 473 473" fill="none" xmlns="http://www.w3.org/2000/svg">
<path d="M472 236.5C472 366.563 366.563 472 236.5 472C106.437 472 1 366.563 1 236.5C1 106.437 106.437 1 236.5 1C366.563 1 472 106.437 472 236.5Z" fill="#EBBC42" stroke="#E7AD18" stroke-width="2"/>
<path d="M117 68C121.205 104.28 120.559 114.47 159.88 121.739C121.017 127.965 122.749 137.057 117 176C110.288 136.849 110.769 128.264 74.257 121.739C110.842 114.976 112.07 104.802 117 68Z" fill="white"/>
<path d="M201.372 376.689C202.743 386.632 202.75 386.714 213.543 388.772C202.75 390.829 203.171 388.277 201.372 400.6C198.979 388.339 199.829 390.918 188 388.772C199.854 386.362 199.611 386.811 201.372 376.689Z" fill="white"/>
<path d="M294.935 37.3372C297.595 56.6226 297.61 56.7816 318.543 60.7717C297.61 64.7617 298.426 59.8123 294.935 83.7146C290.295 59.9332 291.943 64.9352 269 60.7717C291.991 56.0985 291.52 56.9697 294.935 37.3372Z" fill="white"/>
<circle cx="159.5" cy="341.5" r="4.5" fill="white"/>
<circle cx="358.5" cy="258.5" r="4.5" fill="white"/>
<circle cx="340" cy="260" r="3" fill="white"/>
<circle cx="367.5" cy="274.5" r="4.5" fill="white"/>
<circle cx="98.5" cy="289.5" r="4.5" fill="white"/>
<circle cx="377.5" cy="256.5" r="2.5" fill="white"/>
<circle cx="126.5" cy="280.5" r="2.5" fill="white"/>
<circle cx="372.5" cy="241.5" r="2.5" fill="white"/>
<circle cx="123.5" cy="260.5" r="2.5" fill="white"/>
<circle cx="112.5" cy="280.5" r="2.5" fill="white"/>
<circle cx="388.5" cy="234.5" r="2.5" fill="white"/>
<circle cx="340" cy="305" r="3" fill="white"/>
<circle cx="344.5" cy="283.5" r="4.5" fill="white"/>
<circle cx="277.5" cy="79.5" r="2.5" fill="white"/>
<circle cx="253.5" cy="95.5" r="4.5" fill="white"/>
<circle cx="268" cy="114" r="3" fill="white"/>
<circle cx="154.5" cy="412.5" r="4.5" fill="white"/>
<circle cx="179" cy="402" r="3" fill="white"/>
<circle cx="118" cy="294" r="3" fill="white"/>
<circle cx="163.5" cy="385.5" r="9.5" fill="white"/>
<circle cx="374.5" cy="295.5" r="9.5" fill="white"/>
<g clip-path="url(#clip0_201_94)">
<path d="M307.161 325.289C308.24 314.722 307.383 304.071 304.726 293.899C281.836 312.805 256.015 327.438 232.766 338.317C242.208 354.643 246.494 373.612 244.745 392.845C244.495 395.597 245.503 398.248 247.382 400.127C248.117 400.863 248.986 401.479 249.964 401.938C253.445 403.568 257.573 402.843 260.29 400.126L281.804 378.612C296.105 364.311 305.111 345.374 307.161 325.289Z" fill="#654616"/>
<path d="M158.711 176.839C138.626 178.889 119.689 187.895 105.388 202.196L83.8746 223.71C81.157 226.427 80.4328 230.556 82.0624 234.036C82.5206 235.014 83.1377 235.882 83.8728 236.617C85.7518 238.497 88.4043 239.504 91.1554 239.254C110.389 237.506 129.358 241.792 145.683 251.233C156.562 227.985 171.195 202.165 190.101 179.274C179.929 176.617 169.278 175.76 158.711 176.839V176.839Z" fill="#654616"/>
<path d="M321.342 162.659C331.871 173.188 345.827 178.238 359.653 177.837C360.135 176.119 360.582 174.444 360.993 172.82C367.805 145.896 366.989 126.549 366.951 125.738C366.731 121.033 362.967 117.27 358.262 117.049C357.452 117.011 338.104 116.196 311.18 123.007C309.557 123.418 307.881 123.865 306.164 124.346C305.763 138.173 310.813 152.129 321.342 162.659Z" fill="#654616"/>
<path d="M353.644 195.973C337.17 194.928 320.995 188.129 308.433 175.567C295.871 163.005 289.072 146.831 288.028 130.356C266.439 138.637 241.151 152.49 217.992 175.649C184.901 208.74 163.178 253.794 150.782 285.762C149.475 289.133 150.281 292.959 152.838 295.516L188.484 331.162C191.041 333.719 194.867 334.525 198.238 333.218C230.206 320.822 275.26 299.099 308.351 266.008C331.51 242.85 345.363 217.561 353.644 195.973V195.973ZM252.708 231.292C242.031 220.616 242.031 203.244 252.708 192.567C263.385 181.89 280.756 181.89 291.433 192.567C302.11 203.244 302.11 220.615 291.433 231.292C280.756 241.969 263.384 241.969 252.708 231.292Z" fill="#654616"/>
<path d="M143.731 312.979C136.023 314.799 129.927 320.37 127.422 327.884L117.207 358.528C115.387 363.427 120.597 368.606 125.471 366.792L156.116 356.577C163.629 354.073 169.201 347.977 171.02 340.269C171.069 340.06 171.104 339.851 171.147 339.642L144.357 312.852C144.149 312.896 143.939 312.93 143.731 312.979V312.979Z" fill="#654616"/>
<path d="M279.035 191.724C277.778 191.153 276.295 191.709 275.724 192.965C275.153 194.222 275.709 195.705 276.965 196.276L279.035 191.724ZM285.048 223.647C284.282 224.796 284.592 226.348 285.741 227.114C286.89 227.88 288.442 227.57 289.208 226.421L285.048 223.647ZM276.965 196.276C278.378 196.918 280.778 198.387 282.942 200.606C285.097 202.816 286.887 205.632 287.394 208.979L292.338 208.23C291.628 203.544 289.158 199.819 286.521 197.115C283.893 194.42 280.969 192.604 279.035 191.724L276.965 196.276ZM287.394 208.979C288.519 216.402 286.524 221.432 285.048 223.647L289.208 226.421C291.382 223.159 293.647 216.871 292.338 208.23L287.394 208.979Z" fill="#654616"/>
</g>
<defs>
<clipPath id="clip0_201_94">
<rect width="286" height="286" fill="white" transform="translate(81 117)"/>
</clipPath>
</defs>
</svg>
